solid cadcam_fixture_bracket_revision_a
  facet normal 0 0 1
    outer loop
      vertex 0 0 0
      vertex 60 0 0
      vertex 60 40 0
    endloop
  endfacet
  facet normal 0 0 1
    outer loop
      vertex 0 0 0
      vertex 60 40 0
      vertex 0 40 0
    endloop
  endfacet
  facet normal 0 0 -1
    outer loop
      vertex 0 0 6
      vertex 60 40 6
      vertex 60 0 6
    endloop
  endfacet
  facet normal 0 0 -1
    outer loop
      vertex 0 0 6
      vertex 0 40 6
      vertex 60 40 6
    endloop
  endfacet
endsolid cadcam_fixture_bracket_revision_a
